<svg width="18" height="18" viewBox="0 0 18 18" fill="none" xmlns="http://www.w3.org/2000/svg">
<path fill-rule="evenodd" clip-rule="evenodd" d="M7.01842 1.16298C7.23669 1.38065 7.23718 1.73405 7.01951 1.95232L4.3255 4.65377C4.10783 4.87204 3.75443 4.87253 3.53616 4.65486C3.31789 4.43719 3.3174 4.08378 3.53507 3.86551L6.22908 1.16407C6.44675 0.945794 6.80015 0.945307 7.01842 1.16298Z" fill="#E50D32"/>
<path fill-rule="evenodd" clip-rule="evenodd" d="M10.9709 1.16293C11.1892 0.945264 11.5426 0.945752 11.7602 1.16402L14.4542 3.86547C14.6719 4.08374 14.6714 4.43714 14.4532 4.65481C14.2349 4.87248 13.8815 4.872 13.6638 4.65372L10.9698 1.95228C10.7521 1.73401 10.7526 1.3806 10.9709 1.16293Z" fill="#E50D32"/>
<path fill-rule="evenodd" clip-rule="evenodd" d="M2.35156 5.11491C2.27245 5.16789 2.1163 5.31489 2.1163 5.91166C2.1163 6.65539 2.29001 6.75524 2.31904 6.77193C2.3625 6.79698 2.44385 6.82387 2.60687 6.83585C2.73116 6.84499 2.85923 6.84402 3.0183 6.84283C3.07753 6.84239 3.14105 6.84191 3.21027 6.84191H14.79C14.8593 6.84191 14.9228 6.84239 14.982 6.84283C15.1411 6.84402 15.2692 6.84499 15.3934 6.83585C15.5565 6.82387 15.6372 6.79733 15.6807 6.77228C15.7097 6.75559 15.884 6.65539 15.884 5.91166C15.884 5.31489 15.7279 5.16789 15.6488 5.11491C15.5096 5.02171 15.2649 4.98141 14.79 4.98141H3.21027C2.73545 4.98141 2.49071 5.02171 2.35156 5.11491ZM1.73034 4.18743C2.18841 3.88062 2.76973 3.86511 3.21027 3.86511H14.79C15.2306 3.86511 15.8119 3.88062 16.27 4.18743C16.7881 4.53445 17.0003 5.13166 17.0003 5.91166C17.0003 6.76251 16.8082 7.41088 16.2381 7.73946C15.9829 7.8865 15.7078 7.93206 15.4753 7.94915C15.3017 7.96191 15.1087 7.96037 14.9365 7.959C14.8855 7.9586 14.8363 7.95821 14.79 7.95821H3.21027C3.16398 7.95821 3.1148 7.9586 3.06379 7.959C2.89165 7.96037 2.69864 7.96191 2.52505 7.94915C2.29248 7.93206 2.01739 7.8865 1.76225 7.73946C1.19212 7.41088 1 6.76251 1 5.91166C1 5.13166 1.21223 4.53445 1.73034 4.18743Z" fill="#E50D32"/>
<path fill-rule="evenodd" clip-rule="evenodd" d="M15.4267 6.96328C15.7294 7.02134 15.9278 7.31383 15.8697 7.61657L14.6195 14.1356C14.4879 14.823 14.3159 15.5849 13.7802 16.1463C13.2206 16.7326 12.3738 17 11.1466 17H6.65909C5.50422 17 4.66226 16.7115 4.08329 16.1252C3.52005 15.5548 3.29331 14.7871 3.16879 14.0322L2.11931 7.60134C2.06966 7.29711 2.27604 7.01023 2.58028 6.96058C2.88451 6.91093 3.17139 7.11731 3.22104 7.42155L4.27021 13.8505C4.27018 13.8503 4.27023 13.8507 4.27021 13.8505C4.38383 14.5391 4.56276 15.022 4.8776 15.3408C5.17678 15.6438 5.68555 15.8837 6.65909 15.8837H11.1466C12.2339 15.8837 12.7155 15.645 12.9726 15.3756C13.2537 15.0811 13.3868 14.6374 13.5231 13.9257L14.7734 7.40632C14.8315 7.10358 15.124 6.90522 15.4267 6.96328Z" fill="#E50D32"/>
<path d="M7.01951 1.95232L6.9133 1.8464V1.8464L7.01951 1.95232ZM7.01842 1.16298L6.9125 1.26919L7.01842 1.16298ZM4.3255 4.65377L4.43172 4.75969V4.75969L4.3255 4.65377ZM3.53507 3.86551L3.64129 3.97143L3.53507 3.86551ZM6.22908 1.16407L6.33529 1.26999V1.26999L6.22908 1.16407ZM11.7602 1.16402L11.8665 1.0581L11.8665 1.0581L11.7602 1.16402ZM14.4542 3.86547L14.348 3.97139L14.4542 3.86547ZM13.6638 4.65372L13.5576 4.75964L13.6638 4.65372ZM10.9698 1.95228L10.8636 2.0582V2.0582L10.9698 1.95228ZM2.35156 5.11491L2.26808 4.99028H2.26808L2.35156 5.11491ZM2.31904 6.77193L2.39394 6.64197L2.39379 6.64188L2.31904 6.77193ZM2.60687 6.83585L2.59587 6.98545H2.59587L2.60687 6.83585ZM3.0183 6.84283L3.01718 6.69283L3.0183 6.84283ZM14.982 6.84283L14.9831 6.69283L14.982 6.84283ZM15.3934 6.83585L15.3824 6.68625L15.3934 6.83585ZM15.6807 6.77228L15.6059 6.64224L15.6058 6.64232L15.6807 6.77228ZM15.6488 5.11491L15.5653 5.23954H15.5653L15.6488 5.11491ZM1.73034 4.18743L1.64687 4.0628L1.73034 4.18743ZM16.27 4.18743L16.3534 4.0628H16.3534L16.27 4.18743ZM16.2381 7.73946L16.1632 7.6095L16.2381 7.73946ZM15.4753 7.94915L15.4862 8.09875L15.4753 7.94915ZM14.9365 7.959L14.9377 7.80901L14.9365 7.959ZM3.06379 7.959L3.0626 7.80901H3.0626L3.06379 7.959ZM2.52505 7.94915L2.53605 7.79955L2.52505 7.94915ZM1.76225 7.73946L1.68735 7.86942L1.76225 7.73946ZM15.8697 7.61657L16.0171 7.64482L15.8697 7.61657ZM15.4267 6.96328L15.455 6.81597L15.4267 6.96328ZM14.6195 14.1356L14.4722 14.1074L14.4722 14.1074L14.6195 14.1356ZM13.7802 16.1463L13.8887 16.2498L13.7802 16.1463ZM4.08329 16.1252L4.19002 16.0198L4.08329 16.1252ZM3.16879 14.0322L3.02075 14.0563L3.02079 14.0566L3.16879 14.0322ZM2.11931 7.60134L1.97127 7.6255L2.11931 7.60134ZM2.58028 6.96058L2.55612 6.81254L2.58028 6.96058ZM3.22104 7.42155L3.36908 7.39739L3.22104 7.42155ZM4.8776 15.3408L4.77087 15.4462V15.4462L4.8776 15.3408ZM12.9726 15.3756L12.8641 15.272V15.272L12.9726 15.3756ZM13.5231 13.9257L13.3758 13.8974L13.3758 13.8975L13.5231 13.9257ZM14.7734 7.40632L14.9207 7.43457L14.7734 7.40632ZM7.12572 2.05824C7.40189 1.78131 7.40127 1.33293 7.12434 1.05676L6.9125 1.26919C7.07211 1.42836 7.07247 1.68679 6.9133 1.8464L7.12572 2.05824ZM4.43172 4.75969L7.12572 2.05824L6.9133 1.8464L4.21929 4.54785L4.43172 4.75969ZM3.43024 4.76107C3.70717 5.03724 4.15555 5.03662 4.43172 4.75969L4.21929 4.54785C4.06012 4.70746 3.80169 4.70782 3.64208 4.54864L3.43024 4.76107ZM3.42886 3.75959C3.15269 4.03652 3.15331 4.4849 3.43024 4.76107L3.64208 4.54864C3.48247 4.38947 3.48211 4.13105 3.64129 3.97143L3.42886 3.75959ZM6.12287 1.05815L3.42886 3.75959L3.64129 3.97143L6.33529 1.26999L6.12287 1.05815ZM7.12434 1.05676C6.84741 0.780597 6.39903 0.781215 6.12287 1.05815L6.33529 1.26999C6.49446 1.11037 6.75289 1.11002 6.9125 1.26919L7.12434 1.05676ZM11.8665 1.0581C11.5903 0.781173 11.1419 0.780554 10.865 1.05672L11.0768 1.26915C11.2364 1.10997 11.4949 1.11033 11.654 1.26994L11.8665 1.0581ZM14.5605 3.75955L11.8665 1.0581L11.654 1.26994L14.348 3.97139L14.5605 3.75955ZM14.5591 4.76103C14.836 4.48486 14.8366 4.03648 14.5605 3.75955L14.348 3.97139C14.5072 4.131 14.5068 4.38943 14.3472 4.5486L14.5591 4.76103ZM13.5576 4.75964C13.8338 5.03658 14.2821 5.03719 14.5591 4.76103L14.3472 4.5486C14.1876 4.70777 13.9292 4.70742 13.77 4.5478L13.5576 4.75964ZM10.8636 2.0582L13.5576 4.75964L13.77 4.54781L11.076 1.84636L10.8636 2.0582ZM10.865 1.05672C10.588 1.33289 10.5874 1.78127 10.8636 2.0582L11.076 1.84636C10.9168 1.68675 10.9172 1.42832 11.0768 1.26915L10.865 1.05672ZM2.2663 5.91166C2.2663 5.62479 2.30406 5.46028 2.34282 5.36683C2.37935 5.27876 2.41764 5.25118 2.43503 5.23954L2.26808 4.99028C2.20636 5.03162 2.12703 5.10403 2.06571 5.2519C2.00662 5.39438 1.9663 5.60175 1.9663 5.91166H2.2663ZM2.39379 6.64188C2.39188 6.64079 2.39286 6.64133 2.39334 6.6417C2.39356 6.64187 2.39167 6.64048 2.38811 6.63641C2.38095 6.6282 2.36479 6.6065 2.34643 6.55968C2.30895 6.46408 2.2663 6.27411 2.2663 5.91166H1.9663C1.9663 6.29294 2.01051 6.52476 2.06713 6.66919C2.09583 6.74239 2.12855 6.79526 2.16212 6.83371C2.19733 6.87404 2.22892 6.89314 2.24428 6.90197L2.39379 6.64188ZM2.61786 6.68625C2.46427 6.67497 2.409 6.65065 2.39394 6.64197L2.24414 6.90189C2.316 6.94331 2.42343 6.97278 2.59587 6.98545L2.61786 6.68625ZM3.01718 6.69283C2.85662 6.69404 2.73494 6.69486 2.61786 6.68625L2.59587 6.98545C2.72737 6.99511 2.86184 6.99401 3.01943 6.99283L3.01718 6.69283ZM3.21027 6.69191C3.14041 6.69191 3.07636 6.69239 3.01718 6.69283L3.01943 6.99283C3.0787 6.99238 3.14169 6.99191 3.21027 6.99191V6.69191ZM14.79 6.69191H3.21027V6.99191H14.79V6.69191ZM14.9831 6.69283C14.924 6.69239 14.8599 6.69191 14.79 6.69191V6.99191C14.8586 6.99191 14.9216 6.99238 14.9809 6.99283L14.9831 6.69283ZM15.3824 6.68625C15.2654 6.69486 15.1437 6.69404 14.9831 6.69283L14.9809 6.99283C15.1385 6.99401 15.2729 6.99511 15.4044 6.98545L15.3824 6.68625ZM15.6058 6.64232C15.5908 6.65092 15.5363 6.67495 15.3824 6.68625L15.4044 6.98545C15.5766 6.9728 15.6836 6.94374 15.7556 6.90224L15.6058 6.64232ZM15.734 5.91166C15.734 6.27406 15.6912 6.46408 15.6536 6.55974C15.6352 6.60659 15.619 6.62836 15.6117 6.63663C15.6099 6.63874 15.6085 6.64012 15.6077 6.64092C15.6072 6.64132 15.6069 6.6416 15.6067 6.64177C15.6065 6.64193 15.6064 6.64201 15.6064 6.64202C15.6064 6.64202 15.6065 6.64197 15.6066 6.64187C15.6067 6.64178 15.6069 6.64168 15.607 6.64159C15.6073 6.64141 15.6075 6.6413 15.6059 6.64224L15.7554 6.90233C15.7708 6.8935 15.8024 6.8744 15.8376 6.83409C15.8712 6.79563 15.904 6.74274 15.9328 6.66948C15.9896 6.52493 16.034 6.29299 16.034 5.91166H15.734ZM15.5653 5.23954C15.5827 5.25118 15.621 5.27876 15.6575 5.36683C15.6962 5.46028 15.734 5.62479 15.734 5.91166H16.034C16.034 5.60175 15.9937 5.39438 15.9346 5.2519C15.8733 5.10403 15.7939 5.03162 15.7322 4.99028L15.5653 5.23954ZM14.79 5.13141C15.0245 5.13141 15.1953 5.14144 15.3219 5.16138C15.4489 5.18138 15.521 5.20985 15.5653 5.23954L15.7322 4.99028C15.6374 4.92676 15.5175 4.88849 15.3686 4.86503C15.2193 4.84152 15.0304 4.83141 14.79 4.83141V5.13141ZM3.21027 5.13141H14.79V4.83141H3.21027V5.13141ZM2.43503 5.23954C2.47935 5.20985 2.55142 5.18138 2.67838 5.16138C2.80496 5.14144 2.97585 5.13141 3.21027 5.13141V4.83141C2.96988 4.83141 2.78099 4.84152 2.6317 4.86503C2.4828 4.88849 2.36291 4.92676 2.26808 4.99028L2.43503 5.23954ZM3.21027 3.71511C2.77369 3.71511 2.14758 3.72743 1.64687 4.0628L1.81382 4.31205C2.22924 4.03381 2.76577 4.01511 3.21027 4.01511V3.71511ZM14.79 3.71511H3.21027V4.01511H14.79V3.71511ZM16.3534 4.0628C15.8527 3.72743 15.2266 3.71511 14.79 3.71511V4.01511C15.2345 4.01511 15.7711 4.03381 16.1865 4.31205L16.3534 4.0628ZM17.1503 5.91166C17.1503 5.10762 16.9309 4.44955 16.3534 4.0628L16.1865 4.31205C16.6453 4.61935 16.8503 5.1557 16.8503 5.91166H17.1503ZM16.313 7.86942C16.9565 7.49855 17.1503 6.77537 17.1503 5.91166H16.8503C16.8503 6.74965 16.6599 7.3232 16.1632 7.6095L16.313 7.86942ZM15.4862 8.09875C15.7282 8.08096 16.0294 8.03284 16.313 7.86942L16.1632 7.6095C15.9364 7.74017 15.6874 7.78315 15.4643 7.79955L15.4862 8.09875ZM14.9353 8.109C15.1061 8.11036 15.3055 8.11203 15.4862 8.09875L15.4643 7.79955C15.2979 7.81178 15.1112 7.81039 14.9377 7.80901L14.9353 8.109ZM14.79 8.10821C14.8356 8.10821 14.8842 8.10859 14.9353 8.109L14.9377 7.80901C14.8868 7.80861 14.837 7.80821 14.79 7.80821V8.10821ZM3.21027 8.10821H14.79V7.80821H3.21027V8.10821ZM3.06498 8.109C3.11612 8.10859 3.16468 8.10821 3.21027 8.10821V7.80821C3.16327 7.80821 3.11348 7.80861 3.0626 7.80901L3.06498 8.109ZM2.51406 8.09875C2.69484 8.11203 2.89416 8.11036 3.06498 8.109L3.0626 7.80901C2.88913 7.81039 2.70244 7.81178 2.53605 7.79955L2.51406 8.09875ZM1.68735 7.86942C1.97091 8.03284 2.27208 8.08096 2.51406 8.09875L2.53605 7.79955C2.31289 7.78315 2.06388 7.74017 1.83715 7.6095L1.68735 7.86942ZM0.85 5.91166C0.85 6.77537 1.04385 7.49855 1.68735 7.86942L1.83715 7.6095C1.34039 7.3232 1.15 6.74965 1.15 5.91166H0.85ZM1.64687 4.0628C1.06944 4.44955 0.85 5.10762 0.85 5.91166H1.15C1.15 5.1557 1.35502 4.61935 1.81382 4.31205L1.64687 4.0628ZM16.0171 7.64482C16.0907 7.26072 15.8391 6.88963 15.455 6.81597L15.3985 7.1106C15.6198 7.15306 15.7649 7.36694 15.7224 7.58832L16.0171 7.64482ZM14.7668 14.1639L16.0171 7.64482L15.7224 7.58832L14.4722 14.1074L14.7668 14.1639ZM13.8887 16.2498C14.4586 15.6527 14.6358 14.8483 14.7668 14.1638L14.4722 14.1074C14.34 14.7977 14.1733 15.5171 13.6717 16.0427L13.8887 16.2498ZM11.1466 17.15C12.3925 17.15 13.2884 16.8788 13.8887 16.2498L13.6717 16.0427C13.1528 16.5864 12.3552 16.85 11.1466 16.85V17.15ZM6.65909 17.15H11.1466V16.85H6.65909V17.15ZM3.97655 16.2306C4.59319 16.855 5.47998 17.15 6.65909 17.15V16.85C5.52846 16.85 4.73134 16.568 4.19002 16.0198L3.97655 16.2306ZM3.02079 14.0566C3.14678 14.8204 3.37996 15.6264 3.97655 16.2306L4.19002 16.0198C3.66013 15.4832 3.43984 14.7538 3.31679 14.0078L3.02079 14.0566ZM2.55612 6.81254C2.17012 6.87553 1.90828 7.23951 1.97127 7.6255L2.26735 7.57718C2.23105 7.35471 2.38196 7.14493 2.60444 7.10862L2.55612 6.81254ZM3.36908 7.39739C3.30609 7.01139 2.94211 6.74955 2.55612 6.81254L2.60444 7.10862C2.82691 7.07232 3.03669 7.22324 3.073 7.44571L3.36908 7.39739ZM4.41825 13.8263L3.36908 7.39739L3.073 7.44571L4.12216 13.8747L4.41825 13.8263ZM4.4182 13.826C4.4182 13.826 4.4182 13.826 4.4182 13.826C4.41819 13.826 4.4182 13.8261 4.41819 13.826C4.41819 13.826 4.41819 13.826 4.41819 13.826C4.41819 13.826 4.41819 13.826 4.41819 13.826C4.41819 13.826 4.41819 13.826 4.41819 13.826C4.41819 13.826 4.41819 13.826 4.41819 13.826C4.41819 13.826 4.41819 13.826 4.41819 13.826C4.41819 13.826 4.41819 13.826 4.41819 13.826C4.29465 13.9984 4.12221 13.8749 4.12221 13.8749C4.12221 13.8749 4.12221 13.8749 4.12221 13.8749C4.12221 13.8749 4.12221 13.8749 4.12221 13.875C4.12222 13.875 4.12222 13.875 4.12222 13.875C4.12222 13.875 4.12222 13.875 4.12222 13.875C4.12222 13.875 4.12222 13.875 4.12222 13.875C4.12222 13.875 4.29467 13.9985 4.41821 13.8261C4.41821 13.8261 4.41821 13.8261 4.41821 13.8261C4.41821 13.8261 4.41821 13.8261 4.41821 13.8261C4.41821 13.8261 4.41821 13.8261 4.41821 13.8261C4.41821 13.8261 4.41821 13.8261 4.4182 13.8261C4.4181 13.8254 4.41831 13.8267 4.4182 13.8261C4.4182 13.826 4.41821 13.8261 4.4182 13.826L4.12221 13.875C4.12222 13.875 4.12221 13.875 4.12222 13.875C4.12222 13.875 4.12221 13.8749 4.12222 13.875C4.12222 13.875 4.12222 13.875 4.12222 13.875C4.12222 13.875 4.12222 13.875 4.12222 13.875C4.12222 13.875 4.12222 13.875 4.12222 13.875C4.12222 13.875 4.12222 13.875 4.12222 13.875C4.12222 13.875 4.12222 13.875 4.12222 13.875C4.12222 13.875 4.12222 13.875 4.12222 13.875C4.12222 13.875 4.12222 13.875 4.12222 13.875C4.24576 13.7026 4.41821 13.8261 4.41821 13.8261C4.41821 13.8261 4.41821 13.8261 4.41821 13.8261C4.4182 13.8261 4.41821 13.8261 4.4182 13.826C4.4182 13.826 4.41819 13.826 4.41819 13.826C4.41819 13.826 4.41819 13.826 4.41819 13.826C4.41819 13.826 4.24574 13.7025 4.12221 13.8749C4.12221 13.8749 4.12221 13.8749 4.12221 13.8749C4.12221 13.8749 4.12221 13.8749 4.12221 13.8749C4.12221 13.8749 4.12221 13.8749 4.12221 13.8749C4.12221 13.8749 4.12221 13.8749 4.12221 13.8749C4.12232 13.8756 4.1221 13.8743 4.12221 13.8749C4.12222 13.875 4.12221 13.8749 4.12221 13.875L4.4182 13.826ZM4.98433 15.2354C4.70288 14.9504 4.53038 14.5058 4.4182 13.8261L4.12221 13.8749C4.23729 14.5723 4.42263 15.0936 4.77087 15.4462L4.98433 15.2354ZM6.65909 15.7337C5.7101 15.7337 5.24601 15.5004 4.98433 15.2354L4.77087 15.4462C5.10754 15.7872 5.66099 16.0337 6.65909 16.0337V15.7337ZM11.1466 15.7337H6.65909V16.0337H11.1466V15.7337ZM12.8641 15.272C12.6475 15.499 12.2148 15.7337 11.1466 15.7337V16.0337C12.2529 16.0337 12.7835 15.7911 13.0812 15.4791L12.8641 15.272ZM13.3758 13.8975C13.2388 14.613 13.1108 15.0135 12.8641 15.272L13.0812 15.4791C13.3966 15.1486 13.5349 14.6618 13.6705 13.9539L13.3758 13.8975ZM14.6261 7.37807L13.3758 13.8974L13.6705 13.9539L14.9207 7.43457L14.6261 7.37807ZM15.455 6.81597C15.0709 6.74231 14.6998 6.99397 14.6261 7.37807L14.9207 7.43457C14.9632 7.21319 15.1771 7.06814 15.3985 7.1106L15.455 6.81597ZM1.97127 7.6255L3.02075 14.0563L3.31683 14.008L2.26735 7.57718L1.97127 7.6255Z" fill="#E50D32"/>
<path fill-rule="evenodd" clip-rule="evenodd" d="M8.89097 13.8374C8.70342 13.8374 8.55139 13.6853 8.55139 13.4978L8.55139 9.71174C8.55139 9.5242 8.70342 9.37216 8.89097 9.37216L9.10485 9.37216C9.29239 9.37216 9.44443 9.5242 9.44443 9.71174L9.44443 13.4978C9.44443 13.6853 9.29239 13.8374 9.10485 13.8374L8.89097 13.8374Z" fill="#E50D32" stroke="#E50D32" stroke-width="0.3"/>
<path fill-rule="evenodd" clip-rule="evenodd" d="M11.2279 11.7117C11.2279 11.8993 11.0759 12.0513 10.8883 12.0513H7.10227C6.91472 12.0513 6.76269 11.8993 6.76269 11.7117V11.4978C6.76269 11.3103 6.91472 11.1582 7.10227 11.1582H10.8883C11.0759 11.1582 11.2279 11.3103 11.2279 11.4978V11.7117Z" fill="#E50D32" stroke="#E50D32" stroke-width="0.3"/>
</svg>
