<svg width="32" height="32" viewBox="0 0 32 32" fill="none" xmlns="http://www.w3.org/2000/svg">
<rect width="32.0003" height="32" rx="8" fill="#F2F3F8"/>
<path fill-rule="evenodd" clip-rule="evenodd" d="M14.0184 8.16298C14.2367 8.38065 14.2372 8.73405 14.0195 8.95232L11.3255 11.6538C11.1078 11.872 10.7544 11.8725 10.5362 11.6549C10.3179 11.4372 10.3174 11.0838 10.5351 10.8655L13.2291 8.16407C13.4467 7.94579 13.8001 7.94531 14.0184 8.16298Z" fill="#E50D32"/>
<path fill-rule="evenodd" clip-rule="evenodd" d="M17.9709 8.16293C18.1892 7.94526 18.5426 7.94575 18.7602 8.16402L21.4542 10.8655C21.6719 11.0837 21.6714 11.4371 21.4532 11.6548C21.2349 11.8725 20.8815 11.872 20.6638 11.6537L17.9698 8.95228C17.7521 8.73401 17.7526 8.3806 17.9709 8.16293Z" fill="#E50D32"/>
<path fill-rule="evenodd" clip-rule="evenodd" d="M9.35156 12.1149C9.27245 12.1679 9.1163 12.3149 9.1163 12.9117C9.1163 13.6554 9.29001 13.7552 9.31904 13.7719C9.3625 13.797 9.44385 13.8239 9.60687 13.8359C9.73116 13.845 9.85923 13.844 10.0183 13.8428C10.0775 13.8424 10.1411 13.8419 10.2103 13.8419H21.79C21.8593 13.8419 21.9228 13.8424 21.982 13.8428C22.1411 13.844 22.2692 13.845 22.3934 13.8359C22.5565 13.8239 22.6372 13.7973 22.6807 13.7723C22.7097 13.7556 22.884 13.6554 22.884 12.9117C22.884 12.3149 22.7279 12.1679 22.6488 12.1149C22.5096 12.0217 22.2649 11.9814 21.79 11.9814H10.2103C9.73545 11.9814 9.49071 12.0217 9.35156 12.1149ZM8.73034 11.1874C9.18841 10.8806 9.76973 10.8651 10.2103 10.8651H21.79C22.2306 10.8651 22.8119 10.8806 23.27 11.1874C23.7881 11.5345 24.0003 12.1317 24.0003 12.9117C24.0003 13.7625 23.8082 14.4109 23.2381 14.7395C22.9829 14.8865 22.7078 14.9321 22.4753 14.9491C22.3017 14.9619 22.1087 14.9604 21.9365 14.959C21.8855 14.9586 21.8363 14.9582 21.79 14.9582H10.2103C10.164 14.9582 10.1148 14.9586 10.0638 14.959C9.89165 14.9604 9.69864 14.9619 9.52505 14.9491C9.29248 14.9321 9.01739 14.8865 8.76225 14.7395C8.19212 14.4109 8 13.7625 8 12.9117C8 12.1317 8.21223 11.5345 8.73034 11.1874Z" fill="#E50D32"/>
<path fill-rule="evenodd" clip-rule="evenodd" d="M22.4267 13.9633C22.7294 14.0213 22.9278 14.3138 22.8697 14.6166L21.6195 21.1356C21.4879 21.823 21.3159 22.5849 20.7802 23.1463C20.2206 23.7326 19.3738 24 18.1466 24H13.6591C12.5042 24 11.6623 23.7115 11.0833 23.1252C10.52 22.5548 10.2933 21.7871 10.1688 21.0322L9.11931 14.6013C9.06966 14.2971 9.27604 14.0102 9.58028 13.9606C9.88451 13.9109 10.1714 14.1173 10.221 14.4215L11.2702 20.8505C11.2702 20.8503 11.2702 20.8507 11.2702 20.8505C11.3838 21.5391 11.5628 22.022 11.8776 22.3408C12.1768 22.6438 12.6855 22.8837 13.6591 22.8837H18.1466C19.2339 22.8837 19.7155 22.645 19.9726 22.3756C20.2537 22.0811 20.3868 21.6374 20.5231 20.9257L21.7734 14.4063C21.8315 14.1036 22.124 13.9052 22.4267 13.9633Z" fill="#E50D32"/>
<path d="M14.0195 8.95232L13.9133 8.8464V8.8464L14.0195 8.95232ZM14.0184 8.16298L13.9125 8.26919L14.0184 8.16298ZM11.3255 11.6538L11.4317 11.7597V11.7597L11.3255 11.6538ZM10.5351 10.8655L10.6413 10.9714L10.5351 10.8655ZM13.2291 8.16407L13.3353 8.26999V8.26999L13.2291 8.16407ZM18.7602 8.16402L18.8665 8.0581L18.8665 8.0581L18.7602 8.16402ZM21.4542 10.8655L21.348 10.9714L21.4542 10.8655ZM20.6638 11.6537L20.5576 11.7596L20.6638 11.6537ZM17.9698 8.95228L17.8636 9.0582V9.0582L17.9698 8.95228ZM9.35156 12.1149L9.26808 11.9903H9.26808L9.35156 12.1149ZM9.31904 13.7719L9.39394 13.642L9.39379 13.6419L9.31904 13.7719ZM9.60687 13.8359L9.59587 13.9854H9.59587L9.60687 13.8359ZM10.0183 13.8428L10.0172 13.6928L10.0183 13.8428ZM21.982 13.8428L21.9831 13.6928L21.982 13.8428ZM22.3934 13.8359L22.3824 13.6863L22.3934 13.8359ZM22.6807 13.7723L22.6059 13.6422L22.6058 13.6423L22.6807 13.7723ZM22.6488 12.1149L22.5653 12.2395H22.5653L22.6488 12.1149ZM8.73034 11.1874L8.64687 11.0628L8.73034 11.1874ZM23.27 11.1874L23.3534 11.0628H23.3534L23.27 11.1874ZM23.2381 14.7395L23.1632 14.6095L23.2381 14.7395ZM22.4753 14.9491L22.4862 15.0987L22.4753 14.9491ZM21.9365 14.959L21.9377 14.809L21.9365 14.959ZM10.0638 14.959L10.0626 14.809H10.0626L10.0638 14.959ZM9.52505 14.9491L9.53605 14.7996L9.52505 14.9491ZM8.76225 14.7395L8.68735 14.8694L8.76225 14.7395ZM22.8697 14.6166L23.0171 14.6448L22.8697 14.6166ZM22.4267 13.9633L22.455 13.816L22.4267 13.9633ZM21.6195 21.1356L21.4722 21.1074L21.4722 21.1074L21.6195 21.1356ZM20.7802 23.1463L20.8887 23.2498L20.7802 23.1463ZM11.0833 23.1252L11.19 23.0198L11.0833 23.1252ZM10.1688 21.0322L10.0207 21.0563L10.0208 21.0566L10.1688 21.0322ZM9.11931 14.6013L8.97127 14.6255L9.11931 14.6013ZM9.58028 13.9606L9.55612 13.8125L9.58028 13.9606ZM10.221 14.4215L10.3691 14.3974L10.221 14.4215ZM11.8776 22.3408L11.7709 22.4462V22.4462L11.8776 22.3408ZM19.9726 22.3756L19.8641 22.272V22.272L19.9726 22.3756ZM20.5231 20.9257L20.3758 20.8974L20.3758 20.8975L20.5231 20.9257ZM21.7734 14.4063L21.9207 14.4346L21.7734 14.4063ZM14.1257 9.05824C14.4019 8.78131 14.4013 8.33293 14.1243 8.05676L13.9125 8.26919C14.0721 8.42836 14.0725 8.68679 13.9133 8.8464L14.1257 9.05824ZM11.4317 11.7597L14.1257 9.05824L13.9133 8.8464L11.2193 11.5478L11.4317 11.7597ZM10.4302 11.7611C10.7072 12.0372 11.1555 12.0366 11.4317 11.7597L11.2193 11.5478C11.0601 11.7075 10.8017 11.7078 10.6421 11.5486L10.4302 11.7611ZM10.4289 10.7596C10.1527 11.0365 10.1533 11.4849 10.4302 11.7611L10.6421 11.5486C10.4825 11.3895 10.4821 11.131 10.6413 10.9714L10.4289 10.7596ZM13.1229 8.05815L10.4289 10.7596L10.6413 10.9714L13.3353 8.26999L13.1229 8.05815ZM14.1243 8.05676C13.8474 7.7806 13.399 7.78122 13.1229 8.05815L13.3353 8.26999C13.4945 8.11037 13.7529 8.11002 13.9125 8.26919L14.1243 8.05676ZM18.8665 8.0581C18.5903 7.78117 18.1419 7.78055 17.865 8.05672L18.0768 8.26915C18.2364 8.10997 18.4949 8.11033 18.654 8.26994L18.8665 8.0581ZM21.5605 10.7596L18.8665 8.0581L18.654 8.26994L21.348 10.9714L21.5605 10.7596ZM21.5591 11.761C21.836 11.4849 21.8366 11.0365 21.5605 10.7596L21.348 10.9714C21.5072 11.131 21.5068 11.3894 21.3472 11.5486L21.5591 11.761ZM20.5576 11.7596C20.8338 12.0366 21.2821 12.0372 21.5591 11.761L21.3472 11.5486C21.1876 11.7078 20.9292 11.7074 20.77 11.5478L20.5576 11.7596ZM17.8636 9.0582L20.5576 11.7596L20.77 11.5478L18.076 8.84636L17.8636 9.0582ZM17.865 8.05672C17.588 8.33289 17.5874 8.78127 17.8636 9.0582L18.076 8.84636C17.9168 8.68675 17.9172 8.42832 18.0768 8.26915L17.865 8.05672ZM9.2663 12.9117C9.2663 12.6248 9.30406 12.4603 9.34282 12.3668C9.37935 12.2788 9.41764 12.2512 9.43503 12.2395L9.26808 11.9903C9.20636 12.0316 9.12703 12.104 9.06571 12.2519C9.00662 12.3944 8.9663 12.6018 8.9663 12.9117H9.2663ZM9.39379 13.6419C9.39188 13.6408 9.39286 13.6413 9.39334 13.6417C9.39356 13.6419 9.39167 13.6405 9.38811 13.6364C9.38095 13.6282 9.36479 13.6065 9.34643 13.5597C9.30895 13.4641 9.2663 13.2741 9.2663 12.9117H8.9663C8.9663 13.2929 9.01051 13.5248 9.06713 13.6692C9.09583 13.7424 9.12855 13.7953 9.16212 13.8337C9.19733 13.874 9.22892 13.8931 9.24428 13.902L9.39379 13.6419ZM9.61786 13.6863C9.46427 13.675 9.409 13.6506 9.39394 13.642L9.24414 13.9019C9.316 13.9433 9.42343 13.9728 9.59587 13.9854L9.61786 13.6863ZM10.0172 13.6928C9.85662 13.694 9.73494 13.6949 9.61786 13.6863L9.59587 13.9854C9.72737 13.9951 9.86184 13.994 10.0194 13.9928L10.0172 13.6928ZM10.2103 13.6919C10.1404 13.6919 10.0764 13.6924 10.0172 13.6928L10.0194 13.9928C10.0787 13.9924 10.1417 13.9919 10.2103 13.9919V13.6919ZM21.79 13.6919H10.2103V13.9919H21.79V13.6919ZM21.9831 13.6928C21.924 13.6924 21.8599 13.6919 21.79 13.6919V13.9919C21.8586 13.9919 21.9216 13.9924 21.9809 13.9928L21.9831 13.6928ZM22.3824 13.6863C22.2654 13.6949 22.1437 13.694 21.9831 13.6928L21.9809 13.9928C22.1385 13.994 22.2729 13.9951 22.4044 13.9854L22.3824 13.6863ZM22.6058 13.6423C22.5908 13.6509 22.5363 13.6749 22.3824 13.6863L22.4044 13.9854C22.5766 13.9728 22.6836 13.9437 22.7556 13.9022L22.6058 13.6423ZM22.734 12.9117C22.734 13.2741 22.6912 13.4641 22.6536 13.5597C22.6352 13.6066 22.619 13.6284 22.6117 13.6366C22.6099 13.6387 22.6085 13.6401 22.6077 13.6409C22.6072 13.6413 22.6069 13.6416 22.6067 13.6418C22.6065 13.6419 22.6064 13.642 22.6064 13.642C22.6064 13.642 22.6065 13.642 22.6066 13.6419C22.6067 13.6418 22.6069 13.6417 22.607 13.6416C22.6073 13.6414 22.6075 13.6413 22.6059 13.6422L22.7554 13.9023C22.7708 13.8935 22.8024 13.8744 22.8376 13.8341C22.8712 13.7956 22.904 13.7427 22.9328 13.6695C22.9896 13.5249 23.034 13.293 23.034 12.9117H22.734ZM22.5653 12.2395C22.5827 12.2512 22.621 12.2788 22.6575 12.3668C22.6962 12.4603 22.734 12.6248 22.734 12.9117H23.034C23.034 12.6018 22.9937 12.3944 22.9346 12.2519C22.8733 12.104 22.7939 12.0316 22.7322 11.9903L22.5653 12.2395ZM21.79 12.1314C22.0245 12.1314 22.1953 12.1414 22.3219 12.1614C22.4489 12.1814 22.521 12.2099 22.5653 12.2395L22.7322 11.9903C22.6374 11.9268 22.5175 11.8885 22.3686 11.865C22.2193 11.8415 22.0304 11.8314 21.79 11.8314V12.1314ZM10.2103 12.1314H21.79V11.8314H10.2103V12.1314ZM9.43503 12.2395C9.47935 12.2099 9.55142 12.1814 9.67838 12.1614C9.80496 12.1414 9.97585 12.1314 10.2103 12.1314V11.8314C9.96988 11.8314 9.78099 11.8415 9.6317 11.865C9.4828 11.8885 9.36291 11.9268 9.26808 11.9903L9.43503 12.2395ZM10.2103 10.7151C9.77369 10.7151 9.14758 10.7274 8.64687 11.0628L8.81382 11.3121C9.22924 11.0338 9.76577 11.0151 10.2103 11.0151V10.7151ZM21.79 10.7151H10.2103V11.0151H21.79V10.7151ZM23.3534 11.0628C22.8527 10.7274 22.2266 10.7151 21.79 10.7151V11.0151C22.2345 11.0151 22.7711 11.0338 23.1865 11.3121L23.3534 11.0628ZM24.1503 12.9117C24.1503 12.1076 23.9309 11.4496 23.3534 11.0628L23.1865 11.3121C23.6453 11.6194 23.8503 12.1557 23.8503 12.9117H24.1503ZM23.313 14.8694C23.9565 14.4986 24.1503 13.7754 24.1503 12.9117H23.8503C23.8503 13.7497 23.6599 14.3232 23.1632 14.6095L23.313 14.8694ZM22.4862 15.0987C22.7282 15.081 23.0294 15.0328 23.313 14.8694L23.1632 14.6095C22.9364 14.7402 22.6874 14.7832 22.4643 14.7996L22.4862 15.0987ZM21.9353 15.109C22.1061 15.1104 22.3055 15.112 22.4862 15.0987L22.4643 14.7996C22.2979 14.8118 22.1112 14.8104 21.9377 14.809L21.9353 15.109ZM21.79 15.1082C21.8356 15.1082 21.8842 15.1086 21.9353 15.109L21.9377 14.809C21.8868 14.8086 21.837 14.8082 21.79 14.8082V15.1082ZM10.2103 15.1082H21.79V14.8082H10.2103V15.1082ZM10.065 15.109C10.1161 15.1086 10.1647 15.1082 10.2103 15.1082V14.8082C10.1633 14.8082 10.1135 14.8086 10.0626 14.809L10.065 15.109ZM9.51406 15.0987C9.69484 15.112 9.89416 15.1104 10.065 15.109L10.0626 14.809C9.88913 14.8104 9.70244 14.8118 9.53605 14.7996L9.51406 15.0987ZM8.68735 14.8694C8.97091 15.0328 9.27208 15.081 9.51406 15.0987L9.53605 14.7996C9.31289 14.7832 9.06388 14.7402 8.83715 14.6095L8.68735 14.8694ZM7.85 12.9117C7.85 13.7754 8.04385 14.4986 8.68735 14.8694L8.83715 14.6095C8.34039 14.3232 8.15 13.7497 8.15 12.9117H7.85ZM8.64687 11.0628C8.06944 11.4496 7.85 12.1076 7.85 12.9117H8.15C8.15 12.1557 8.35502 11.6194 8.81382 11.3121L8.64687 11.0628ZM23.0171 14.6448C23.0907 14.2607 22.8391 13.8896 22.455 13.816L22.3985 14.1106C22.6198 14.1531 22.7649 14.3669 22.7224 14.5883L23.0171 14.6448ZM21.7668 21.1639L23.0171 14.6448L22.7224 14.5883L21.4722 21.1074L21.7668 21.1639ZM20.8887 23.2498C21.4586 22.6527 21.6358 21.8483 21.7668 21.1638L21.4722 21.1074C21.34 21.7977 21.1733 22.5171 20.6717 23.0427L20.8887 23.2498ZM18.1466 24.15C19.3925 24.15 20.2884 23.8788 20.8887 23.2498L20.6717 23.0427C20.1528 23.5864 19.3552 23.85 18.1466 23.85V24.15ZM13.6591 24.15H18.1466V23.85H13.6591V24.15ZM10.9766 23.2306C11.5932 23.855 12.48 24.15 13.6591 24.15V23.85C12.5285 23.85 11.7313 23.568 11.19 23.0198L10.9766 23.2306ZM10.0208 21.0566C10.1468 21.8204 10.38 22.6264 10.9766 23.2306L11.19 23.0198C10.6601 22.4832 10.4398 21.7538 10.3168 21.0078L10.0208 21.0566ZM9.55612 13.8125C9.17012 13.8755 8.90828 14.2395 8.97127 14.6255L9.26735 14.5772C9.23105 14.3547 9.38196 14.1449 9.60444 14.1086L9.55612 13.8125ZM10.3691 14.3974C10.3061 14.0114 9.94211 13.7495 9.55612 13.8125L9.60444 14.1086C9.82691 14.0723 10.0367 14.2232 10.073 14.4457L10.3691 14.3974ZM11.4182 20.8263L10.3691 14.3974L10.073 14.4457L11.1222 20.8747L11.4182 20.8263ZM11.4182 20.826C11.4182 20.826 11.4182 20.826 11.4182 20.826C11.4182 20.826 11.4182 20.8261 11.4182 20.826C11.4182 20.826 11.4182 20.826 11.4182 20.826C11.4182 20.826 11.4182 20.826 11.4182 20.826C11.4182 20.826 11.4182 20.826 11.4182 20.826C11.4182 20.826 11.4182 20.826 11.4182 20.826C11.4182 20.826 11.4182 20.826 11.4182 20.826C11.4182 20.826 11.4182 20.826 11.4182 20.826C11.2947 20.9984 11.1222 20.8749 11.1222 20.8749C11.1222 20.8749 11.1222 20.8749 11.1222 20.8749C11.1222 20.8749 11.1222 20.8749 11.1222 20.875C11.1222 20.875 11.1222 20.875 11.1222 20.875C11.1222 20.875 11.1222 20.875 11.1222 20.875C11.1222 20.875 11.1222 20.875 11.1222 20.875C11.1222 20.875 11.2947 20.9985 11.4182 20.8261C11.4182 20.8261 11.4182 20.8261 11.4182 20.8261C11.4182 20.8261 11.4182 20.8261 11.4182 20.8261C11.4182 20.8261 11.4182 20.8261 11.4182 20.8261C11.4182 20.8261 11.4182 20.8261 11.4182 20.8261C11.4181 20.8254 11.4183 20.8267 11.4182 20.8261C11.4182 20.826 11.4182 20.8261 11.4182 20.826L11.1222 20.875C11.1222 20.875 11.1222 20.875 11.1222 20.875C11.1222 20.875 11.1222 20.8749 11.1222 20.875C11.1222 20.875 11.1222 20.875 11.1222 20.875C11.1222 20.875 11.1222 20.875 11.1222 20.875C11.1222 20.875 11.1222 20.875 11.1222 20.875C11.1222 20.875 11.1222 20.875 11.1222 20.875C11.1222 20.875 11.1222 20.875 11.1222 20.875C11.1222 20.875 11.1222 20.875 11.1222 20.875C11.1222 20.875 11.1222 20.875 11.1222 20.875C11.2458 20.7026 11.4182 20.8261 11.4182 20.8261C11.4182 20.8261 11.4182 20.8261 11.4182 20.8261C11.4182 20.8261 11.4182 20.8261 11.4182 20.826C11.4182 20.826 11.4182 20.826 11.4182 20.826C11.4182 20.826 11.4182 20.826 11.4182 20.826C11.4182 20.826 11.2457 20.7025 11.1222 20.8749C11.1222 20.8749 11.1222 20.8749 11.1222 20.8749C11.1222 20.8749 11.1222 20.8749 11.1222 20.8749C11.1222 20.8749 11.1222 20.8749 11.1222 20.8749C11.1222 20.8749 11.1222 20.8749 11.1222 20.8749C11.1223 20.8756 11.1221 20.8743 11.1222 20.8749C11.1222 20.875 11.1222 20.8749 11.1222 20.875L11.4182 20.826ZM11.9843 22.2354C11.7029 21.9504 11.5304 21.5058 11.4182 20.8261L11.1222 20.8749C11.2373 21.5723 11.4226 22.0936 11.7709 22.4462L11.9843 22.2354ZM13.6591 22.7337C12.7101 22.7337 12.246 22.5004 11.9843 22.2354L11.7709 22.4462C12.1075 22.7872 12.661 23.0337 13.6591 23.0337V22.7337ZM18.1466 22.7337H13.6591V23.0337H18.1466V22.7337ZM19.8641 22.272C19.6475 22.499 19.2148 22.7337 18.1466 22.7337V23.0337C19.2529 23.0337 19.7835 22.7911 20.0812 22.4791L19.8641 22.272ZM20.3758 20.8975C20.2388 21.613 20.1108 22.0135 19.8641 22.272L20.0812 22.4791C20.3966 22.1486 20.5349 21.6618 20.6705 20.9539L20.3758 20.8975ZM21.6261 14.3781L20.3758 20.8974L20.6705 20.9539L21.9207 14.4346L21.6261 14.3781ZM22.455 13.816C22.0709 13.7423 21.6998 13.994 21.6261 14.3781L21.9207 14.4346C21.9632 14.2132 22.1771 14.0681 22.3985 14.1106L22.455 13.816ZM8.97127 14.6255L10.0207 21.0563L10.3168 21.008L9.26735 14.5772L8.97127 14.6255Z" fill="#E50D32"/>
<path fill-rule="evenodd" clip-rule="evenodd" d="M15.891 20.8374C15.7034 20.8374 15.5514 20.6853 15.5514 20.4978L15.5514 16.7117C15.5514 16.5242 15.7034 16.3722 15.891 16.3722L16.1048 16.3722C16.2924 16.3722 16.4444 16.5242 16.4444 16.7117L16.4444 20.4978C16.4444 20.6853 16.2924 20.8374 16.1048 20.8374L15.891 20.8374Z" fill="#E50D32" stroke="#E50D32" stroke-width="0.3"/>
<path fill-rule="evenodd" clip-rule="evenodd" d="M18.2279 18.7117C18.2279 18.8993 18.0759 19.0513 17.8883 19.0513H14.1023C13.9147 19.0513 13.7627 18.8993 13.7627 18.7117V18.4978C13.7627 18.3103 13.9147 18.1582 14.1023 18.1582H17.8883C18.0759 18.1582 18.2279 18.3103 18.2279 18.4978V18.7117Z" fill="#E50D32" stroke="#E50D32" stroke-width="0.3"/>
</svg>
