<svg width="25" height="25" viewBox="0 0 25 25" fill="none" xmlns="http://www.w3.org/2000/svg">
<path fill-rule="evenodd" clip-rule="evenodd" d="M9.86631 1.63689C10.1664 1.93618 10.1671 2.4221 9.86781 2.72221L7.24527 5.35199H17.9297L15.3072 2.72229C15.0079 2.42217 15.0086 1.93626 15.3087 1.63696C15.6088 1.33767 16.0947 1.33834 16.394 1.63846L20.0973 5.35199H20.5481C21.1538 5.35199 21.9531 5.37333 22.5829 5.79517C23.2953 6.27233 23.5871 7.09347 23.5871 8.16595C23.5871 9.33585 23.323 10.2273 22.5391 10.6791C22.3508 10.7876 22.1547 10.8559 21.964 10.8996L20.3195 19.4744C20.1385 20.4195 19.9021 21.4671 19.1655 22.239C18.396 23.0452 17.2317 23.4129 15.5444 23.4129H9.37412C7.7862 23.4129 6.62854 23.0162 5.83246 22.21C5.05802 21.4257 4.74626 20.3702 4.57505 19.3322L3.19844 10.8968C3.01143 10.8531 2.81954 10.7854 2.63521 10.6791C1.8513 10.2273 1.58714 9.33585 1.58714 8.16595C1.58714 7.09347 1.87895 6.27232 2.59135 5.79517C3.22118 5.37333 4.02048 5.35199 4.62621 5.35199H5.07761L8.78098 1.63838C9.08028 1.33827 9.56619 1.3376 9.86631 1.63689ZM4.76719 10.9799L6.08947 19.0824C6.08944 19.0822 6.0895 19.0826 6.08947 19.0824C6.2457 20.0292 6.49171 20.6931 6.92462 21.1315C7.33598 21.5481 8.03552 21.878 9.37412 21.878H15.5444C17.0393 21.878 17.7015 21.5498 18.0551 21.1793C18.4415 20.7744 18.6246 20.1643 18.812 19.1857L20.3857 10.9799H4.76719ZM3.4455 7.07044C3.33673 7.14329 3.12203 7.3454 3.12203 8.16595C3.12203 9.18855 3.36087 9.32585 3.40079 9.3488C3.46055 9.38324 3.5724 9.42022 3.79654 9.43669C3.96744 9.44925 4.14354 9.44792 4.36226 9.44628C4.44369 9.44567 4.53103 9.44502 4.62621 9.44502H20.5481C20.6433 9.44502 20.7306 9.44567 20.812 9.44628C21.0307 9.44792 21.2068 9.44925 21.3777 9.43669C21.6019 9.42022 21.7129 9.38372 21.7727 9.34928C21.8126 9.32634 22.0523 9.18856 22.0523 8.16595C22.0523 7.3454 21.8376 7.14329 21.7288 7.07044C21.5375 6.94229 21.2009 6.88688 20.5481 6.88688H4.62621C3.97334 6.88688 3.63683 6.94229 3.4455 7.07044ZM9.00575 13.9477C9.42959 13.9477 9.77319 14.2913 9.77319 14.7152C9.77319 16.256 11.0463 17.5291 12.5871 17.5291C14.1279 17.5291 15.4011 16.256 15.4011 14.7152C15.4011 14.2913 15.7447 13.9477 16.1685 13.9477C16.5924 13.9477 16.936 14.2913 16.936 14.7152C16.936 17.1037 14.9756 19.064 12.5871 19.064C10.1986 19.064 8.23831 17.1037 8.23831 14.7152C8.23831 14.2913 8.5819 13.9477 9.00575 13.9477Z" fill="#1F2029"/>
</svg>
