<svg width="25" height="25" viewBox="0 0 25 25" fill="none" xmlns="http://www.w3.org/2000/svg">
<path fill-rule="evenodd" clip-rule="evenodd" d="M4.50785 4.49993C3.67927 5.32619 3.19774 6.62776 3.19774 8.55061V13.6527C3.19774 16.1377 3.70289 17.3814 4.47055 18.0512C5.26356 18.7431 6.53689 19.0098 8.56983 19.0098H9.08146C9.37085 19.0098 9.6524 19.0999 9.87383 19.2093C10.0925 19.3174 10.3398 19.4875 10.5167 19.7277L12.0489 21.7649C12.2629 22.0495 12.4927 22.1322 12.6629 22.1322C12.833 22.1322 13.0628 22.0495 13.2768 21.7649L14.8117 19.7241L14.8146 19.7202C15.152 19.2776 15.6836 19.0098 16.2443 19.0098H16.7559C18.6841 19.0098 19.9893 18.5296 20.8179 17.7033C21.6464 16.8771 22.128 15.5755 22.128 13.6527V8.55061C22.128 8.12794 22.4716 7.78531 22.8954 7.78531C23.3193 7.78531 23.6629 8.12794 23.6629 8.55061V13.6527C23.6629 15.8114 23.1211 17.5711 21.9032 18.7856C20.6853 20.0002 18.9207 20.5404 16.7559 20.5404H16.2443C16.171 20.5404 16.0893 20.5783 16.0377 20.645C16.0373 20.6454 16.037 20.6459 16.0367 20.6463L14.5047 22.6833C14.0434 23.2966 13.3829 23.6629 12.6629 23.6629C11.9428 23.6629 11.2823 23.2966 10.821 22.6833L9.28485 20.6408C9.28257 20.6386 9.27796 20.6345 9.27046 20.6286C9.25195 20.6143 9.2251 20.597 9.19212 20.5807C9.15921 20.5644 9.12784 20.5529 9.10267 20.5461C9.08785 20.5421 9.07906 20.5408 9.07629 20.5404H8.56983C6.50975 20.5404 4.71332 20.2969 3.45982 19.2031C2.18097 18.0872 1.66286 16.2697 1.66286 13.6527V8.55061C1.66286 6.39183 2.20458 4.63217 3.42252 3.41762C4.64046 2.20307 6.40503 1.66286 8.56983 1.66286H12.6629C13.0867 1.66286 13.4303 2.0055 13.4303 2.42816C13.4303 2.85083 13.0867 3.19347 12.6629 3.19347H8.56983C6.64162 3.19347 5.33642 3.67366 4.50785 4.49993Z" fill="#292D32"/>
<path fill-rule="evenodd" clip-rule="evenodd" d="M20.2384 3.31853C19.8572 3.20481 19.4913 3.32395 19.3374 3.54347C19.1878 3.75683 18.9433 3.88643 18.6802 3.89187C18.4171 3.8973 18.1673 3.77791 18.0088 3.57091C17.8181 3.32196 17.4389 3.21515 17.0909 3.31757C16.4732 3.51201 16.1211 4.26864 16.3803 5.03591C16.5963 5.66963 17.0802 6.18304 17.6134 6.5487C17.8761 6.72878 18.1339 6.86114 18.3452 6.94602C18.5242 7.01793 18.6279 7.03908 18.6575 7.04512C18.6597 7.04557 18.6614 7.04593 18.6628 7.04622C18.6643 7.0459 18.6663 7.04549 18.6687 7.04497C18.6991 7.03869 18.8035 7.01707 18.9835 6.94466C19.1969 6.85879 19.4571 6.72524 19.7212 6.5444C20.2588 6.17622 20.7384 5.66459 20.9435 5.04252L20.9455 5.03663C21.2076 4.2616 20.8467 3.5022 20.2384 3.31853ZM18.6495 2.00692C19.3024 1.61321 20.1046 1.59034 20.7153 1.77301L20.7167 1.77343C22.4673 2.30053 22.959 4.18775 22.5017 5.54454C22.1489 6.61172 21.3725 7.38068 20.6567 7.8709C20.2937 8.11949 19.9276 8.30969 19.6031 8.44022C19.3051 8.5601 18.9613 8.66286 18.663 8.66286C18.3656 8.66286 18.0238 8.56135 17.7264 8.44189C17.4032 8.31205 17.0388 8.12269 16.6771 7.87468C15.962 7.38432 15.1892 6.61643 14.8258 5.54893L14.8253 5.54747C14.3642 4.18434 14.8625 2.31531 16.6027 1.77546L16.6107 1.77297C17.2404 1.58459 18.0119 1.63277 18.6495 2.00692Z" fill="#292D32"/>
<path fill-rule="evenodd" clip-rule="evenodd" d="M15.6629 11.6629C15.6629 11.1106 16.1086 10.6629 16.6584 10.6629H16.6673C17.2171 10.6629 17.6629 11.1106 17.6629 11.6629C17.6629 12.2151 17.2171 12.6629 16.6673 12.6629H16.6584C16.1086 12.6629 15.6629 12.2151 15.6629 11.6629Z" fill="#292D32"/>
<path fill-rule="evenodd" clip-rule="evenodd" d="M11.6629 11.6629C11.6629 11.1106 12.1086 10.6629 12.6584 10.6629H12.6673C13.2171 10.6629 13.6629 11.1106 13.6629 11.6629C13.6629 12.2151 13.2171 12.6629 12.6673 12.6629H12.6584C12.1086 12.6629 11.6629 12.2151 11.6629 11.6629Z" fill="#292D32"/>
<path fill-rule="evenodd" clip-rule="evenodd" d="M7.66286 11.6629C7.66286 11.1106 8.10857 10.6629 8.65839 10.6629H8.66733C9.21714 10.6629 9.66286 11.1106 9.66286 11.6629C9.66286 12.2151 9.21714 12.6629 8.66733 12.6629H8.65839C8.10857 12.6629 7.66286 12.2151 7.66286 11.6629Z" fill="#292D32"/>
</svg>
