<svg width="25" height="25" viewBox="0 0 25 25" fill="none" xmlns="http://www.w3.org/2000/svg">
<g clip-path="url(#clip0_368_276)">
<path fill-rule="evenodd" clip-rule="evenodd" d="M9.26723 1.31951C9.31536 0.91954 9.71915 0.615005 10.2014 0.615005H16.0471C16.5298 0.615005 16.9339 0.920194 16.9813 1.32067L17.8075 8.2911C18.0869 10.6592 15.9656 12.615 13.118 12.615C10.2703 12.615 8.14897 10.6595 8.42838 8.29144L9.26723 1.31951ZM11.0507 2.18022L10.297 8.44466C10.1263 9.8954 11.3845 11.0498 13.118 11.0498C14.8516 11.0498 16.1099 9.89591 15.939 8.445L15.1964 2.18022H11.0507Z" fill="#1F2029"/>
<path fill-rule="evenodd" clip-rule="evenodd" d="M14.8965 0.872439C15.0484 0.708521 15.2641 0.615005 15.4904 0.615005H18.7478C20.229 0.615005 21.4399 0.887743 22.3218 1.6836C23.1931 2.46993 23.5915 3.63283 23.7919 5.0468C23.7932 5.05613 23.7944 5.06549 23.7954 5.07486L24.0946 7.94621C24.355 10.5026 22.4058 12.615 19.7731 12.615C17.6004 12.615 15.6649 10.9135 15.4412 8.79261L15.4409 8.79016L14.6933 1.47538C14.6708 1.25538 14.7447 1.03636 14.8965 0.872439ZM16.3754 2.18022L17.0348 8.63219L17.0349 8.63331C17.1749 9.95535 18.4217 11.0498 19.7731 11.0498C21.4548 11.0498 22.6669 9.74004 22.5005 8.10207L22.2031 5.2477C22.0186 3.95734 21.6915 3.24558 21.2348 2.83337C20.787 2.42922 20.0648 2.18022 18.7478 2.18022H16.3754Z" fill="#1F2029"/>
<path fill-rule="evenodd" clip-rule="evenodd" d="M3.90543 1.6836C4.78828 0.887744 6.00063 0.615005 7.48345 0.615005H10.7446C10.9712 0.615005 11.1871 0.708538 11.3392 0.87248C11.4912 1.03642 11.5651 1.25548 11.5425 1.47549L10.7943 8.78793C10.5826 10.9132 8.6415 12.615 6.46769 12.615C3.83217 12.615 1.88093 10.5029 2.14124 7.94676L2.42988 5.07767C2.43092 5.06735 2.43216 5.05706 2.43362 5.0468C2.63423 3.63283 3.03314 2.46993 3.90543 1.6836ZM4.02445 5.24633L3.73734 8.10017C3.5703 9.73855 4.78376 11.0498 6.46769 11.0498C7.82198 11.0498 9.06702 9.95463 9.19795 8.63686L9.19815 8.63487L9.85848 2.18022H7.48345C6.16493 2.18022 5.44199 2.42922 4.99366 2.83337C4.53656 3.24543 4.20916 3.95683 4.02445 5.24633Z" fill="#1F2029"/>
<path fill-rule="evenodd" clip-rule="evenodd" d="M10.4028 16.5233C11.0877 15.8695 12.0467 15.615 13.1179 15.615C14.1891 15.615 15.1481 15.8695 15.8331 16.5233C16.518 17.1771 16.7846 18.0925 16.7846 19.115V21.8073C16.7846 22.2534 16.4058 22.615 15.9384 22.615H10.2974C9.83011 22.615 9.45127 22.2534 9.45127 21.8073V19.115C9.45127 18.0925 9.71791 17.1771 10.4028 16.5233ZM11.5995 17.6656C11.3451 17.9083 11.1436 18.3391 11.1436 19.115V20.9996H15.0923V19.115C15.0923 18.3391 14.8907 17.9083 14.6364 17.6656C14.3821 17.4228 13.9308 17.2304 13.1179 17.2304C12.305 17.2304 11.8538 17.4228 11.5995 17.6656Z" fill="#1F2029"/>
<path fill-rule="evenodd" clip-rule="evenodd" d="M3.9323 10.615C4.35576 10.615 4.69905 10.9431 4.69905 11.3479V15.7355C4.69905 17.8567 5.14849 19.1523 5.96835 19.9359C6.78821 20.7196 8.14366 21.1492 10.3628 21.1492H15.8731C18.0922 21.1492 19.4477 20.7196 20.2675 19.9359C21.0874 19.1523 21.5368 17.8567 21.5368 15.7355V11.3479C21.5368 10.9431 21.8801 10.615 22.3036 10.615C22.727 10.615 23.0703 10.9431 23.0703 11.3479V15.7355C23.0703 18.002 22.5997 19.7797 21.3519 20.9724C20.1041 22.1651 18.2443 22.615 15.8731 22.615H10.3628C7.99158 22.615 6.13181 22.1651 4.88401 20.9724C3.63621 19.7797 3.16555 18.002 3.16555 15.7355V11.3479C3.16555 10.9431 3.50884 10.615 3.9323 10.615Z" fill="#1F2029"/>
</g>
<defs>
<clipPath id="clip0_368_276">
<rect width="24" height="24" fill="white" transform="translate(0.662857 0.162857)"/>
</clipPath>
</defs>
</svg>
