<svg width="25" height="25" viewBox="0 0 25 25" fill="none" xmlns="http://www.w3.org/2000/svg">
<path fill-rule="evenodd" clip-rule="evenodd" d="M12.0588 1.43201C13.1183 1.40713 14.2203 1.67666 15.0942 2.28918L21.4167 6.72463C22.0507 7.16729 22.585 7.84975 22.959 8.56704C23.3331 9.28464 23.5871 10.114 23.5871 10.8898V18.3486C23.5871 21.1385 21.3108 23.4304 18.5118 23.4304H6.66249C3.86233 23.4304 1.58714 21.1374 1.58714 18.3384V10.7464C1.58714 10.0184 1.81677 9.23052 2.15421 8.54189C2.4917 7.85316 2.97419 7.18788 3.55078 6.73866L9.06613 2.43551C9.91005 1.77829 10.9993 1.45688 12.0588 1.43201ZM10.009 3.64819L4.4942 7.95092C4.15011 8.21889 3.7983 8.67573 3.53217 9.21883C3.26589 9.76224 3.12203 10.3165 3.12203 10.7464V18.3384C3.12203 20.2933 4.71475 21.8936 6.66249 21.8936H18.5118C20.4607 21.8936 22.0523 20.2922 22.0523 18.3486V10.8898C22.0523 10.4259 21.8919 9.84132 21.5983 9.2782C21.3047 8.71504 20.9178 8.24975 20.539 7.98545L20.5375 7.98436L14.214 3.54821C13.6554 3.15678 12.8898 2.94976 12.0948 2.96843C11.2998 2.98709 10.5465 3.22974 10.009 3.64819Z" fill="#E50D32"/>
<path fill-rule="evenodd" clip-rule="evenodd" d="M12.5878 14.7222C13.0117 14.7222 13.3553 15.0663 13.3553 15.4906V18.5643C13.3553 18.9887 13.0117 19.3327 12.5878 19.3327C12.164 19.3327 11.8204 18.9887 11.8204 18.5643V15.4906C11.8204 15.0663 12.164 14.7222 12.5878 14.7222Z" fill="#E50D32"/>
</svg>
