<svg width="20" height="23" viewBox="0 0 20 23" fill="none" xmlns="http://www.w3.org/2000/svg">
<path fill-rule="evenodd" clip-rule="evenodd" d="M9.89844 4.53992C10.3955 4.53992 10.7984 4.94286 10.7984 5.43992V8.76992C10.7984 9.26697 10.3955 9.66992 9.89844 9.66992C9.40139 9.66992 8.99844 9.26697 8.99844 8.76992V5.43992C8.99844 4.94286 9.40139 4.53992 9.89844 4.53992Z" fill="#2A2C39"/>
<path fill-rule="evenodd" clip-rule="evenodd" d="M2.35736 7.65997C2.35736 3.48292 5.74031 0.0999756 9.91736 0.0999756C14.0749 0.0999756 17.476 3.50286 17.4874 7.65752L17.4874 7.65997L17.4874 9.75997C17.4874 9.98863 17.5384 10.3296 17.6389 10.6951C17.7395 11.0611 17.8698 11.3792 17.9879 11.575L17.9894 11.5775L19.2594 13.6975C20.283 15.4081 19.4711 17.6307 17.572 18.2638C12.6076 19.9151 7.23771 19.9153 2.27329 18.264C1.31796 17.9455 0.601136 17.2757 0.28063 16.4081C-0.039736 15.5409 0.0683598 14.5656 0.584061 13.6995L0.585298 13.6975L1.8553 11.5775L1.85679 11.575C1.9756 11.3781 2.10575 11.0618 2.206 10.6982C2.3061 10.3352 2.35736 9.99414 2.35736 9.75997V7.65997ZM9.91736 1.89998C6.73442 1.89998 4.15736 4.47703 4.15736 7.65997V9.75997C4.15736 10.2058 4.06862 10.7147 3.94123 11.1767C3.81412 11.6377 3.62954 12.1208 3.39872 12.5037C3.39845 12.5041 3.39819 12.5045 3.39793 12.505L2.13066 14.6204C2.13047 14.6207 2.13028 14.6211 2.13009 14.6214C1.86635 15.0649 1.85454 15.4743 1.9691 15.7843C2.08359 16.0943 2.3573 16.3946 2.84197 16.5562C7.43723 18.0846 12.4075 18.0846 17.0028 16.5562C17.8036 16.2892 18.1515 15.3514 17.7151 14.6221L16.4468 12.505C16.4465 12.5045 16.4462 12.504 16.4459 12.5035C16.2145 12.1195 16.03 11.6333 15.9033 11.1723C15.7763 10.7103 15.6874 10.2013 15.6874 9.75997V7.66142C15.6782 4.49653 13.0795 1.89998 9.91736 1.89998Z" fill="#2A2C39"/>
<path fill-rule="evenodd" clip-rule="evenodd" d="M7.46836 17.8198C7.46836 18.4779 7.74397 19.0926 8.18476 19.5334C8.62553 19.9742 9.24025 20.2498 9.89834 20.2498C11.2313 20.2498 12.3283 19.1527 12.3283 17.8198H14.1283C14.1283 20.1469 12.2254 22.0498 9.89834 22.0498C8.73644 22.0498 7.67115 21.5654 6.91197 20.8062C6.15276 20.047 5.66836 18.9817 5.66836 17.8198H7.46836Z" fill="#2A2C39"/>
</svg>
